<svg version="1.1" id="Layer_1" xmlns="http://www.w3.org/2000/svg" xmlns:xlink="http://www.w3.org/1999/xlink" x="0px" y="0px"
	 width="100%" viewBox="0 0 180 180" enable-background="new 0 0 180 180" xml:space="preserve">
<path fill="#0DC942" opacity="1.000000" stroke="none" 
	d="
M181.000000,70.000000 
	C181.000000,83.687561 181.000000,97.375122 180.640625,111.343506 
	C179.519760,113.380913 178.612808,115.089935 178.020370,116.901794 
	C174.108383,128.866028 168.546204,139.869156 160.379929,149.590576 
	C148.058899,164.257950 132.396698,173.394958 114.212288,178.676697 
	C113.017387,179.023743 112.065125,180.206161 111.000000,181.000000 
	C97.979103,181.000000 84.958214,181.000000 71.682083,180.644043 
	C70.290260,179.754761 69.202881,179.041428 68.009666,178.715286 
	C52.113750,174.370453 38.194145,166.541641 26.581476,154.850693 
	C15.217920,143.410538 7.618682,129.741821 3.316738,114.200424 
	C2.987495,113.010994 1.792552,112.061188 1.000000,111.000000 
	C1.000000,97.979103 1.000000,84.958214 1.354863,71.685150 
	C2.243009,70.296364 2.956531,69.208939 3.282283,68.015656 
	C7.529207,52.458534 15.129687,38.777531 26.440176,27.288206 
	C38.002781,15.542780 51.916157,7.724121 67.792946,3.317440 
	C68.984573,2.986697 69.936600,1.792703 71.000000,1.000001 
	C84.020897,1.000000 97.041786,1.000000 110.317917,1.355953 
	C111.711121,2.245633 112.799484,2.963907 113.994576,3.285101 
	C129.262115,7.388435 142.761841,14.809447 154.067749,25.768099 
	C165.616592,36.962196 173.734055,50.402607 178.102875,66.017120 
	C178.517487,67.498940 180.008636,68.679550 181.000000,70.000000 
M18.212500,47.772076 
	C-14.695462,104.895348 25.144190,173.364227 88.486290,175.551361 
	C148.393326,177.619888 192.228348,116.893211 170.117279,61.162521 
	C157.883163,30.326612 134.946716,11.405935 101.980064,7.353047 
	C66.359932,2.973946 38.326271,16.965096 18.212500,47.772076 
z"/>
<path fill="#000100" opacity="1.000000" stroke="none" 
	d="
M70.531342,1.000001 
	C69.936600,1.792703 68.984573,2.986697 67.792946,3.317440 
	C51.916157,7.724121 38.002781,15.542780 26.440176,27.288206 
	C15.129687,38.777531 7.529207,52.458534 3.282283,68.015656 
	C2.956531,69.208939 2.243009,70.296364 1.354863,71.216492 
	C1.000000,47.739807 1.000000,24.479618 1.000000,1.000000 
	C24.020430,1.000000 47.041557,1.000000 70.531342,1.000001 
z"/>
<path fill="#000100" opacity="1.000000" stroke="none" 
	d="
M1.000000,111.468658 
	C1.792552,112.061188 2.987495,113.010994 3.316738,114.200424 
	C7.618682,129.741821 15.217920,143.410538 26.581476,154.850693 
	C38.194145,166.541641 52.113750,174.370453 68.009666,178.715286 
	C69.202881,179.041428 70.290260,179.754761 71.213425,180.644043 
	C47.739815,181.000000 24.479630,181.000000 1.000000,181.000000 
	C1.000000,157.979568 1.000000,134.958450 1.000000,111.468658 
z"/>
<path fill="#000100" opacity="1.000000" stroke="none" 
	d="
M181.000000,69.531342 
	C180.008636,68.679550 178.517487,67.498940 178.102875,66.017120 
	C173.734055,50.402607 165.616592,36.962196 154.067749,25.768099 
	C142.761841,14.809447 129.262115,7.388435 113.994576,3.285101 
	C112.799484,2.963907 111.711121,2.245633 110.786575,1.355953 
	C134.259659,1.000000 157.519318,1.000000 181.000000,1.000000 
	C181.000000,23.687082 181.000000,46.374882 181.000000,69.531342 
z"/>
<path fill="#000100" opacity="1.000000" stroke="none" 
	d="
M111.468658,181.000000 
	C112.065125,180.206161 113.017387,179.023743 114.212288,178.676697 
	C132.396698,173.394958 148.058899,164.257950 160.379929,149.590576 
	C168.546204,139.869156 174.108383,128.866028 178.020370,116.901794 
	C178.612808,115.089935 179.519760,113.380913 180.640625,111.812164 
	C181.000000,134.927383 181.000000,157.854752 181.000000,181.000000 
	C157.979568,181.000000 134.958435,181.000000 111.468658,181.000000 
z"/>
<path fill="#000301" opacity="1.000000" stroke="none" 
	d="
M18.420883,47.471504 
	C38.326271,16.965096 66.359932,2.973946 101.980064,7.353047 
	C134.946716,11.405935 157.883163,30.326612 170.117279,61.162521 
	C192.228348,116.893211 148.393326,177.619888 88.486290,175.551361 
	C25.144190,173.364227 -14.695462,104.895348 18.420883,47.471504 
M83.328484,80.497810 
	C83.328484,73.883835 83.328484,67.269867 83.328484,60.478096 
	C74.295074,60.478096 65.934799,60.478096 57.491669,60.478096 
	C57.491669,64.480721 57.491669,68.051659 57.491669,72.250336 
	C61.762623,72.250336 65.668983,72.250336 69.761047,72.250336 
	C69.761047,76.453392 69.761047,80.020538 69.761047,83.819092 
	C61.213051,83.819092 52.995949,83.819092 44.225426,83.819092 
	C44.225426,72.517067 44.136517,61.563560 44.393436,50.618168 
	C44.414093,49.738121 46.785355,48.236618 48.113892,48.179607 
	C54.267113,47.915546 60.437859,48.059101 66.602325,48.057987 
	C72.033485,48.057003 77.464645,48.057777 82.966545,48.057777 
	C82.966545,43.645325 82.966545,40.068314 82.966545,36.300407 
	C65.564117,36.300407 48.524700,36.300407 31.384659,36.300407 
	C31.384659,56.406826 31.384659,76.125862 31.384659,95.860069 
	C48.818939,95.860069 65.867134,95.860069 83.328499,95.860069 
	C83.328499,90.782616 83.328499,86.139725 83.328484,80.497810 
M105.553665,96.309616 
	C117.535454,96.309586 129.517242,96.311363 141.499039,96.308876 
	C149.022049,96.307304 148.845932,96.303070 148.904678,88.655678 
	C148.931580,85.155167 147.795868,84.034920 144.318268,84.103394 
	C134.670029,84.293350 125.015526,84.181793 115.363602,84.152428 
	C113.605659,84.147079 111.848251,83.967125 109.724724,83.847092 
	C109.724724,71.720024 109.724724,60.161877 109.724724,48.058403 
	C122.671532,48.058403 135.249725,48.058403 148.120483,48.058403 
	C148.120483,43.789680 148.120483,40.067387 148.120483,36.365005 
	C130.713394,36.365005 113.691780,36.365005 96.216141,36.365005 
	C96.216141,38.625217 96.215981,40.428318 96.216171,42.231422 
	C96.217773,57.541496 96.177185,72.851738 96.236877,88.161583 
	C96.272957,97.414368 95.137520,96.184250 105.553665,96.309616 
M90.816742,122.248047 
	C84.360901,123.735527 81.266212,127.840309 81.310532,134.415115 
	C81.331856,137.579453 81.119072,140.761169 81.401329,143.900024 
	C81.510635,145.115555 82.436707,146.905151 83.431770,147.288605 
	C89.968224,149.807449 93.979431,147.118790 93.708900,140.242264 
	C93.555634,136.346466 94.480293,133.974335 98.567726,133.032501 
	C102.519775,132.121857 105.063805,129.261642 105.376686,125.296242 
	C105.859184,119.181358 105.895790,113.015892 105.725800,106.882843 
	C105.702469,106.041328 103.428337,104.606071 102.159378,104.564194 
	C95.171539,104.333595 88.171623,104.506325 81.177071,104.429253 
	C76.314926,104.375671 77.772179,107.968689 77.700600,110.475235 
	C77.630379,112.934052 76.711128,116.172615 81.171822,116.043404 
	C85.279266,115.924423 89.392876,116.018097 95.186203,116.018097 
	C93.468109,118.876419 92.517761,120.457481 90.816742,122.248047 
M126.807083,142.245422 
	C127.560593,139.486786 124.809021,135.339203 129.264389,134.104599 
	C137.294571,131.879425 139.254807,126.289459 138.825455,118.894630 
	C138.633163,115.582550 138.664795,112.244026 138.826233,108.928772 
	C138.977524,105.822388 137.942688,104.325249 134.602783,104.396721 
	C127.959511,104.538902 121.305099,104.611397 114.666679,104.382385 
	C109.619583,104.208275 110.728790,107.658051 110.661346,110.465797 
	C110.593857,113.274925 110.066338,116.351799 114.659912,116.074265 
	C118.587555,115.836960 122.540916,116.025177 126.229599,116.025177 
	C127.571800,119.874619 126.572723,121.734894 123.203369,122.487968 
	C116.821800,123.914284 114.276909,128.255371 114.393707,134.521576 
	C114.443230,137.178833 114.440872,139.840149 114.352989,142.496002 
	C114.255379,145.445312 114.587814,148.131073 118.489151,147.508728 
	C121.679207,146.999832 126.903778,149.964951 126.807083,142.245422 
M61.003407,137.040146 
	C62.339481,135.825165 63.481182,134.010101 65.046562,133.503067 
	C70.677094,131.679337 72.951080,127.811310 72.957314,122.205902 
	C72.962311,117.710556 72.849670,113.211121 73.009628,108.721344 
	C73.112572,105.832108 72.221672,104.375313 69.103630,104.422836 
	C62.278988,104.526886 55.449429,104.566681 48.626297,104.422966 
	C43.901051,104.323433 44.928566,107.633316 44.899559,110.286156 
	C44.869781,113.010201 44.083939,116.264915 48.753185,116.051643 
	C52.698898,115.871422 56.659374,116.014519 60.389977,116.014519 
	C61.633114,119.735466 60.838425,121.467773 57.479485,122.577118 
	C50.248810,124.965141 48.940258,127.076775 48.821621,134.621124 
	C48.782352,137.117981 49.057190,139.646515 48.752712,142.106659 
	C48.184483,146.697830 50.260109,147.809006 54.479038,147.639725 
	C60.948326,147.380142 60.957344,147.603302 60.980495,140.906418 
	C60.983948,139.907455 60.986492,138.908493 61.003407,137.040146 
z"/>
<path fill="#0ECE44" opacity="1.000000" stroke="none" 
	d="
M83.328491,80.997330 
	C83.328499,86.139725 83.328499,90.782616 83.328499,95.860069 
	C65.867134,95.860069 48.818939,95.860069 31.384659,95.860069 
	C31.384659,76.125862 31.384659,56.406826 31.384659,36.300407 
	C48.524700,36.300407 65.564117,36.300407 82.966545,36.300407 
	C82.966545,40.068314 82.966545,43.645325 82.966545,48.057777 
	C77.464645,48.057777 72.033485,48.057003 66.602325,48.057987 
	C60.437859,48.059101 54.267113,47.915546 48.113892,48.179607 
	C46.785355,48.236618 44.414093,49.738121 44.393436,50.618168 
	C44.136517,61.563560 44.225426,72.517067 44.225426,83.819092 
	C52.995949,83.819092 61.213051,83.819092 69.761047,83.819092 
	C69.761047,80.020538 69.761047,76.453392 69.761047,72.250336 
	C65.668983,72.250336 61.762623,72.250336 57.491669,72.250336 
	C57.491669,68.051659 57.491669,64.480721 57.491669,60.478096 
	C65.934799,60.478096 74.295074,60.478096 83.328484,60.478096 
	C83.328484,67.269867 83.328484,73.883835 83.328491,80.997330 
z"/>
<path fill="#0ECB43" opacity="1.000000" stroke="none" 
	d="
M105.063042,96.309616 
	C95.137520,96.184250 96.272957,97.414368 96.236877,88.161583 
	C96.177185,72.851738 96.217773,57.541496 96.216171,42.231422 
	C96.215981,40.428318 96.216141,38.625217 96.216141,36.365005 
	C113.691780,36.365005 130.713394,36.365005 148.120483,36.365005 
	C148.120483,40.067387 148.120483,43.789680 148.120483,48.058403 
	C135.249725,48.058403 122.671532,48.058403 109.724724,48.058403 
	C109.724724,60.161877 109.724724,71.720024 109.724724,83.847092 
	C111.848251,83.967125 113.605659,84.147079 115.363602,84.152428 
	C125.015526,84.181793 134.670029,84.293350 144.318268,84.103394 
	C147.795868,84.034920 148.931580,85.155167 148.904678,88.655678 
	C148.845932,96.303070 149.022049,96.307304 141.499039,96.308876 
	C129.517242,96.311363 117.535454,96.309586 105.063042,96.309616 
z"/>
<path fill="#0DC641" opacity="1.000000" stroke="none" 
	d="
M91.192078,122.143295 
	C92.517761,120.457481 93.468109,118.876419 95.186203,116.018097 
	C89.392876,116.018097 85.279266,115.924423 81.171822,116.043404 
	C76.711128,116.172615 77.630379,112.934052 77.700600,110.475235 
	C77.772179,107.968689 76.314926,104.375671 81.177071,104.429253 
	C88.171623,104.506325 95.171539,104.333595 102.159378,104.564194 
	C103.428337,104.606071 105.702469,106.041328 105.725800,106.882843 
	C105.895790,113.015892 105.859184,119.181358 105.376686,125.296242 
	C105.063805,129.261642 102.519775,132.121857 98.567726,133.032501 
	C94.480293,133.974335 93.555634,136.346466 93.708900,140.242264 
	C93.979431,147.118790 89.968224,149.807449 83.431770,147.288605 
	C82.436707,146.905151 81.510635,145.115555 81.401329,143.900024 
	C81.119072,140.761169 81.331856,137.579453 81.310532,134.415115 
	C81.266212,127.840309 84.360901,123.735527 91.192078,122.143295 
z"/>
<path fill="#0DC541" opacity="1.000000" stroke="none" 
	d="
M126.805008,142.682587 
	C126.903778,149.964951 121.679207,146.999832 118.489151,147.508728 
	C114.587814,148.131073 114.255379,145.445312 114.352989,142.496002 
	C114.440872,139.840149 114.443230,137.178833 114.393707,134.521576 
	C114.276909,128.255371 116.821800,123.914284 123.203369,122.487968 
	C126.572723,121.734894 127.571800,119.874619 126.229599,116.025177 
	C122.540916,116.025177 118.587555,115.836960 114.659912,116.074265 
	C110.066338,116.351799 110.593857,113.274925 110.661346,110.465797 
	C110.728790,107.658051 109.619583,104.208275 114.666679,104.382385 
	C121.305099,104.611397 127.959511,104.538902 134.602783,104.396721 
	C137.942688,104.325249 138.977524,105.822388 138.826233,108.928772 
	C138.664795,112.244026 138.633163,115.582550 138.825455,118.894630 
	C139.254807,126.289459 137.294571,131.879425 129.264389,134.104599 
	C124.809021,135.339203 127.560593,139.486786 126.805008,142.682587 
z"/>
<path fill="#0DC842" opacity="1.000000" stroke="none" 
	d="
M60.996429,137.474838 
	C60.986492,138.908493 60.983948,139.907455 60.980495,140.906418 
	C60.957344,147.603302 60.948326,147.380142 54.479038,147.639725 
	C50.260109,147.809006 48.184483,146.697830 48.752712,142.106659 
	C49.057190,139.646515 48.782352,137.117981 48.821621,134.621124 
	C48.940258,127.076775 50.248810,124.965141 57.479485,122.577118 
	C60.838425,121.467773 61.633114,119.735466 60.389977,116.014519 
	C56.659374,116.014519 52.698898,115.871422 48.753185,116.051643 
	C44.083939,116.264915 44.869781,113.010201 44.899559,110.286156 
	C44.928566,107.633316 43.901051,104.323433 48.626297,104.422966 
	C55.449429,104.566681 62.278988,104.526886 69.103630,104.422836 
	C72.221672,104.375313 73.112572,105.832108 73.009628,108.721344 
	C72.849670,113.211121 72.962311,117.710556 72.957314,122.205902 
	C72.951080,127.811310 70.677094,131.679337 65.046562,133.503067 
	C63.481182,134.010101 62.339481,135.825165 60.996429,137.474838 
M67.967804,116.681885 
	C67.829369,115.126099 67.690926,113.570312 67.552483,112.014534 
	C67.193428,112.070732 66.834366,112.126938 66.475311,112.183136 
	C66.475311,115.765678 66.475311,119.348221 66.475311,122.930756 
	C66.855209,122.957909 67.235107,122.985062 67.615005,123.012215 
	C67.732445,121.171471 67.849876,119.330734 67.967804,116.681885 
z"/>
<path fill="#0BA636" opacity="1.000000" stroke="none" 
	d="
M67.967560,117.085938 
	C67.849876,119.330734 67.732445,121.171471 67.615005,123.012215 
	C67.235107,122.985062 66.855209,122.957909 66.475311,122.930756 
	C66.475311,119.348221 66.475311,115.765678 66.475311,112.183136 
	C66.834366,112.126938 67.193428,112.070732 67.552483,112.014534 
	C67.690926,113.570312 67.829369,115.126099 67.967560,117.085938 
z"/>
</svg>